<svg width="150" height="102" viewBox="0 0 150 102" fill="none" xmlns="http://www.w3.org/2000/svg">
<mask id="mask0" mask-type="alpha" maskUnits="userSpaceOnUse" x="56" y="22" width="94" height="80">
<rect x="56" y="22" width="94" height="80" fill="white"/>
</mask>
<g mask="url(#mask0)">
<path d="M139.68 30.3768C130.868 22.614 117.453 23.3414 109.536 32.0112L102.972 39.2573L96.3979 32.0112C88.484 23.366 75.0975 22.6395 66.2917 30.3768C57.3705 38.2361 56.5173 51.8288 64.3849 60.7395C64.4548 60.8189 64.5258 60.8983 64.5977 60.9767L96.2929 96.0262C99.6478 99.7276 105.372 100.013 109.078 96.662C109.3 96.4607 109.513 96.2491 109.714 96.0262L141.419 60.9767C149.406 52.1803 148.741 38.5818 139.934 30.6045C139.85 30.528 139.765 30.4524 139.68 30.3768Z" fill="white"/>
<path fill-rule="evenodd" clip-rule="evenodd" d="M94.1597 98.0805C96.5116 100.68 99.7547 102 103.01 102C105.865 102 108.731 100.983 111.01 98.9196C111.303 98.6538 111.583 98.3747 111.851 98.0786L143.661 62.8644C148.048 58.026 150.289 51.7684 149.97 45.244C149.652 38.7206 146.812 32.7108 141.976 28.3242L141.689 28.0689C131.746 19.2976 116.389 20.132 107.446 29.937L102.969 34.8856L98.4762 29.9256C89.5517 20.1633 74.2132 19.3299 64.2808 28.0689C59.3815 32.3909 56.4582 38.3628 56.0492 44.8842C55.6401 51.4057 57.7946 57.6966 62.1159 62.5967L94.1597 98.0805ZM68.38 32.6837C71.9292 29.5587 76.3748 28.0211 80.808 28.0211C85.9325 28.0211 91.0399 30.0761 94.7235 34.1078L101.351 41.4287C101.893 42.0281 102.663 42.3699 103.471 42.3699H103.472C104.279 42.3699 105.049 42.0272 105.591 41.4278L112.202 34.1155C119.087 26.5597 130.923 25.9164 138.586 32.6818C138.587 32.6837 138.589 32.6847 138.59 32.6856L138.814 32.8851C142.543 36.2697 144.732 40.9047 144.977 45.9368C145.222 50.9688 143.495 55.7947 140.111 59.5306L108.149 94.9391C108.01 95.0928 107.863 95.2398 107.708 95.3801C105.147 97.7014 101.177 97.5039 98.8611 94.942L66.9001 59.5229L66.7141 59.3148C63.3833 55.5351 61.7231 50.6834 62.0378 45.6523C62.3524 40.6222 64.6057 36.0149 68.38 32.6837Z" fill="#222433"/>
</g>
<circle cx="7" cy="7" r="6" fill="white"/>
<mask id="mask1" mask-type="alpha" maskUnits="userSpaceOnUse" x="0" y="0" width="14" height="14">
<rect width="14" height="14" transform="matrix(1 0 0 -1 0 14)" fill="white"/>
</mask>
<g mask="url(#mask1)">
<path fill-rule="evenodd" clip-rule="evenodd" d="M13.9631 6.86288C13.9426 6.78626 13.9201 6.70268 13.9153 6.5467C13.9245 6.32713 13.9152 6.10718 13.8875 5.88918C13.873 5.78364 13.8506 5.67933 13.8206 5.57711C13.7808 5.47196 13.7473 5.36455 13.7203 5.25544C13.6742 5.0423 13.61 4.83349 13.5284 4.63129C13.4802 4.50063 13.4695 4.42096 13.4594 4.34627C13.4467 4.25176 13.435 4.16523 13.3499 3.99347C13.273 3.83664 13.2171 3.77641 13.1533 3.70754C13.1001 3.65022 13.0415 3.58691 12.9604 3.45694C12.8866 3.33845 12.8594 3.26331 12.834 3.1927C12.802 3.1041 12.7726 3.02265 12.6567 2.87169C12.5125 2.70555 12.3573 2.54932 12.1921 2.40406C12.0937 2.29964 12.0571 2.22642 12.0219 2.15609C11.98 2.07233 11.9402 1.99265 11.8004 1.86921C11.6703 1.7557 11.5951 1.72123 11.5105 1.68247C11.4384 1.64942 11.3596 1.61326 11.234 1.52233C11.1097 1.42896 11.0499 1.37745 10.9884 1.3245L10.9865 1.32285C10.9035 1.24758 10.8118 1.1824 10.7135 1.12864C10.5787 1.04678 10.5142 1.00141 10.447 0.953403C10.3572 0.885948 10.2596 0.829531 10.1563 0.785363C10.0136 0.716467 9.94115 0.68454 9.86607 0.651652C9.76456 0.604116 9.66045 0.562361 9.55424 0.526584C9.3515 0.445636 9.14479 0.375048 8.93489 0.315094C8.79216 0.280666 8.71994 0.244262 8.64961 0.208812C8.5689 0.168127 8.49069 0.1287 8.31123 0.0949631C8.19159 0.0780535 8.1174 0.0660334 8.05294 0.0555897C7.9472 0.0384569 7.86765 0.025569 7.65663 0.00230217C7.4975 -0.00595284 7.41673 0.00946617 7.33401 0.0252571C7.25077 0.0411482 7.16555 0.0574169 6.9965 0.050313C6.84261 0.0579376 6.7634 0.0508318 6.68295 0.0436153C6.59875 0.0360632 6.5132 0.028388 6.33926 0.0373497C6.19275 0.0554533 6.1132 0.0565977 6.0358 0.0577106C5.94693 0.0589886 5.8609 0.0602264 5.67962 0.0870419C5.5193 0.119031 5.44703 0.161221 5.37108 0.205559C5.29827 0.248062 5.22208 0.29254 5.06171 0.331899C4.93127 0.368902 4.85445 0.382852 4.78356 0.395727C4.68979 0.412756 4.60638 0.427905 4.42294 0.492015C4.21844 0.572598 4.01828 0.663782 3.82326 0.765199C3.72454 0.808232 3.63316 0.866471 3.55245 0.937799C3.46591 1.00987 3.37374 1.07489 3.27684 1.13224C3.18443 1.18428 3.09621 1.24343 3.01298 1.30917L2.74385 1.51033C2.65629 1.57076 2.57346 1.63777 2.49606 1.71078L2.24755 1.93691C2.0828 2.08062 1.92812 2.2355 1.78461 2.40046C1.6242 2.55101 1.47508 2.71316 1.33845 2.88561C1.20444 3.06119 1.08324 3.24619 0.975763 3.43918C0.884885 3.58462 0.866745 3.66487 0.846426 3.75475C0.828882 3.83237 0.809713 3.91717 0.74069 4.05732C0.627503 4.24486 0.529946 4.44141 0.449008 4.64498C0.352553 4.84345 0.273576 5.04996 0.212976 5.26216C0.18419 5.36641 0.170458 5.47425 0.172198 5.58239C0.183207 5.69565 0.179174 5.80987 0.160204 5.92207C0.103125 6.1344 0.0644425 6.35125 0.0445869 6.57022C0.0128593 6.78832 -0.0019769 7.00855 0.000210907 7.22893C0.00377412 7.33734 0.0227547 7.44468 0.0565804 7.54773C0.0880767 7.65621 0.11291 7.76652 0.13094 7.87805C0.155012 8.01732 0.157708 8.09612 0.160251 8.17047C0.163385 8.26208 0.166288 8.34693 0.208658 8.5298C0.218051 8.56456 0.226355 8.5954 0.233849 8.62322C0.292376 8.84053 0.301386 8.87398 0.392399 9.16042C0.435014 9.27297 0.460034 9.34334 0.481776 9.40449C0.517309 9.50443 0.544085 9.57974 0.624593 9.77424C0.690132 9.90837 0.714167 9.98449 0.73781 10.0594C0.76427 10.1432 0.790238 10.2254 0.873338 10.3857C0.931705 10.481 0.969135 10.5433 1.00103 10.5963C1.06012 10.6946 1.10022 10.7613 1.21923 10.9484C1.30956 11.0686 1.35255 11.1357 1.39484 11.2016C1.44205 11.2753 1.48837 11.3475 1.59871 11.4909C1.7056 11.6086 1.77812 11.651 1.85193 11.6941C1.92686 11.7379 2.00312 11.7825 2.11802 11.9074C2.23158 12.0108 2.28417 12.0698 2.3375 12.1297C2.39346 12.1925 2.45023 12.2562 2.57906 12.3731C2.71585 12.4756 2.78634 12.5139 2.85684 12.5522C2.92666 12.5901 2.9965 12.628 3.13076 12.7284C3.26005 12.8087 3.31698 12.8658 3.37456 12.9235C3.43578 12.9849 3.49773 13.0471 3.64816 13.1386C3.77627 13.2036 3.84483 13.2427 3.90992 13.2798C3.98887 13.3248 4.0627 13.3669 4.23152 13.4488C4.38148 13.5088 4.46252 13.5205 4.547 13.5327C4.62955 13.5446 4.71537 13.557 4.87197 13.6154C5.00088 13.6551 5.07362 13.682 5.14032 13.7068C5.22976 13.74 5.30832 13.7691 5.49684 13.8194C5.64248 13.8519 5.72727 13.8541 5.80788 13.8562C5.89919 13.8586 5.98514 13.8608 6.14808 13.9068C6.31383 13.9488 6.4141 13.974 6.50165 13.9903C6.597 14.0079 6.69548 13.9909 6.77942 13.9423C6.86091 13.9086 6.9326 13.8548 6.98787 13.7861H7.00994C7.0133 13.853 7.07374 13.9157 7.19895 13.9666C7.29741 14.0095 7.40895 14.0111 7.50863 13.9711C7.63421 13.9284 7.76241 13.8938 7.89242 13.8674C8.01853 13.8461 8.09436 13.8383 8.16223 13.8314C8.26088 13.8213 8.3427 13.8129 8.53767 13.7671C8.67757 13.729 8.75657 13.7207 8.83263 13.7127C8.92194 13.7034 9.00719 13.6944 9.1822 13.6382C9.31548 13.5878 9.39131 13.5664 9.46303 13.5462C9.55085 13.5214 9.63249 13.4984 9.80586 13.426C9.95188 13.3546 10.0143 13.2999 10.0793 13.243C10.1424 13.1878 10.2079 13.1304 10.3547 13.0536C10.4823 12.9755 10.5552 12.9443 10.6271 12.9136C10.7068 12.8795 10.7853 12.846 10.9354 12.7497C11.0208 12.6856 11.0777 12.6434 11.1259 12.6077C11.2204 12.5376 11.2814 12.4923 11.459 12.3551C11.5766 12.2479 11.6296 12.1885 11.6846 12.1268C11.7391 12.0657 11.7956 12.0023 11.9189 11.8882C12.0222 11.7745 12.0812 11.7219 12.1411 11.6686C12.2039 11.6126 12.2676 11.5558 12.3842 11.4268C12.4767 11.3032 12.5285 11.2432 12.5809 11.1824C12.636 11.1185 12.6917 11.0538 12.7961 10.9138C12.8817 10.775 12.9206 10.7056 12.9619 10.6317C13.0011 10.5616 13.0426 10.4875 13.1285 10.3461C13.2019 10.2 13.2312 10.1261 13.2625 10.0471C13.292 9.97268 13.3233 9.89376 13.3948 9.74592C13.4496 9.60831 13.4867 9.53821 13.523 9.46958C13.5641 9.3918 13.6043 9.31592 13.668 9.14578C13.7264 8.95404 13.7442 8.88193 13.7714 8.77225C13.7873 8.70794 13.8064 8.63073 13.8388 8.50891C13.8747 8.34632 13.8724 8.26523 13.8699 8.17726C13.8677 8.09691 13.8652 8.01082 13.8916 7.85164C13.8978 7.81666 13.9033 7.78561 13.9082 7.75756C13.9253 7.66085 13.936 7.59988 13.9511 7.53717C13.9776 7.42696 13.9929 7.31437 13.9969 7.20109C14.0082 7.03051 13.9869 6.95134 13.9631 6.86288ZM6.85327 3.01967C6.90431 2.96882 6.94491 2.9089 6.97287 2.84314L6.98515 2.8451C6.99207 2.92307 7.03106 2.99498 7.09322 3.0444C7.1618 3.11616 7.21893 3.09286 7.2904 3.0637C7.34671 3.04073 7.41192 3.01413 7.49865 3.0275C7.67285 3.05566 7.67895 3.05707 7.85087 3.09667L7.86948 3.10096C7.96101 3.12549 8.00231 3.14733 8.04652 3.1707C8.08745 3.19234 8.13089 3.21531 8.219 3.24297C8.30901 3.2764 8.3493 3.2966 8.39417 3.3191C8.4334 3.33877 8.47615 3.36021 8.55873 3.39379C8.63606 3.43143 8.68632 3.43004 8.73744 3.42864C8.79206 3.42714 8.84767 3.42561 8.93834 3.47165C9.01706 3.519 9.05035 3.55196 9.08472 3.58598C9.11876 3.61968 9.15385 3.65442 9.23521 3.70523L9.53608 3.92559C9.60112 3.98373 9.6405 4.0072 9.68041 4.03099C9.72251 4.05608 9.7652 4.08153 9.83922 4.14839C9.90001 4.2138 9.92439 4.25268 9.94912 4.29212C9.97456 4.3327 10.0004 4.37387 10.0666 4.44514C10.1196 4.51462 10.1422 4.55355 10.1649 4.59276C10.1886 4.63385 10.2126 4.67525 10.272 4.75242C10.3172 4.82438 10.3431 4.86049 10.3689 4.89642C10.397 4.93543 10.4249 4.97423 10.4771 5.05848C10.5158 5.13403 10.5405 5.17125 10.5651 5.20838C10.5919 5.24873 10.6186 5.28898 10.6631 5.37824C10.6968 5.4612 10.7014 5.50708 10.7061 5.55444C10.7107 5.60143 10.7155 5.64987 10.7491 5.73743C10.7809 5.83923 10.7912 5.87987 10.8056 5.93672C10.8149 5.97353 10.8259 6.01713 10.8456 6.08853C10.8637 6.16793 10.8842 6.20865 10.9043 6.24841C10.9274 6.29424 10.9499 6.33881 10.9673 6.43988C10.981 6.53132 10.9682 6.57704 10.9545 6.62579C10.9418 6.67128 10.9283 6.71942 10.9349 6.80984C10.9406 6.88763 10.9553 6.9309 10.9693 6.9721C10.9866 7.0231 11.0028 7.07092 10.9996 7.1771C10.9962 7.2739 10.9786 7.3167 10.9586 7.36507C10.9416 7.40626 10.923 7.45148 10.9101 7.53751C10.9082 7.66093 10.8943 7.7839 10.8687 7.90478C10.8422 8.02519 10.8049 8.14309 10.7571 8.2571C10.7238 8.34555 10.6878 8.37918 10.6488 8.41571C10.6138 8.44844 10.5763 8.4835 10.536 8.56242C10.4996 8.63506 10.4999 8.68426 10.5002 8.73245C10.5005 8.78806 10.5009 8.84233 10.4447 8.92969C10.393 9.0106 10.354 9.03903 10.3111 9.07031C10.2733 9.09781 10.2326 9.12752 10.1775 9.19706C10.1269 9.26101 10.1135 9.30634 10.1006 9.35039C10.0854 9.40179 10.0708 9.45144 9.99818 9.52686C9.93227 9.59441 9.88444 9.61148 9.83334 9.62972C9.78646 9.64645 9.73683 9.66416 9.66797 9.72274C9.60482 9.77635 9.58889 9.82493 9.5731 9.87308C9.55529 9.92741 9.53766 9.98119 9.45259 10.041C9.3489 10.1123 9.24061 10.1769 9.1284 10.2345C9.01884 10.2951 8.90555 10.3491 8.78916 10.3961C8.67993 10.4565 8.56706 10.5105 8.45117 10.5576C8.33445 10.6031 8.21545 10.6427 8.09463 10.6764C8.00373 10.6973 7.9555 10.6921 7.90489 10.6867C7.85666 10.6815 7.80628 10.6761 7.71478 10.6928C7.64647 10.7022 7.60464 10.7088 7.56808 10.7146C7.5099 10.7238 7.46508 10.7309 7.34821 10.7435C7.26134 10.7474 7.21775 10.7692 7.1732 10.7915C7.12633 10.8149 7.0784 10.8389 6.97788 10.8431C6.88786 10.8387 6.84272 10.825 6.79703 10.8112C6.74995 10.7969 6.70227 10.7825 6.60429 10.7778C6.5142 10.7672 6.47122 10.7491 6.42673 10.7305C6.38281 10.712 6.3374 10.693 6.24374 10.6798C6.16094 10.6637 6.11283 10.6744 6.06461 10.6851C6.01149 10.6968 5.95825 10.7086 5.85837 10.6847C5.76798 10.66 5.72996 10.6307 5.68977 10.5997C5.65171 10.5704 5.6117 10.5396 5.52339 10.5097C5.40786 10.4653 5.29479 10.415 5.18466 10.3591C5.06531 10.3195 4.9488 10.2722 4.83589 10.2176C4.72877 10.1532 4.62601 10.0823 4.52824 10.005C4.3275 9.85696 4.14656 9.68488 3.98968 9.49283C3.9234 9.42408 3.90544 9.38147 3.88563 9.33447C3.86812 9.29293 3.84916 9.24795 3.79411 9.17845C3.71875 9.08245 3.65078 8.98114 3.59076 8.87533C3.54714 8.8078 3.50948 8.77815 3.47314 8.74955C3.42991 8.71552 3.38856 8.68297 3.34129 8.58985C3.29703 8.50328 3.29127 8.45745 3.28478 8.40576C3.27924 8.36169 3.27317 8.31336 3.24225 8.23189C3.20711 8.14176 3.20567 8.09634 3.20403 8.04433C3.20265 8.00096 3.20113 7.95301 3.17982 7.87074C3.15884 7.79426 3.13014 7.75605 3.10251 7.71926C3.06937 7.67513 3.03776 7.63304 3.02286 7.52943C3.01533 7.40619 3.01784 7.28257 3.03038 7.15972C3.03157 7.03797 3.04171 6.91646 3.06072 6.79613C3.0672 6.71466 3.04876 6.66969 3.03054 6.62527C3.00999 6.57516 2.98973 6.52575 3.00581 6.42543C3.02318 6.32954 3.03831 6.28704 3.05564 6.23838C3.07008 6.19783 3.08605 6.153 3.1061 6.06943C3.12725 5.99389 3.13516 5.95077 3.14256 5.91037C3.15184 5.85977 3.16034 5.81342 3.19311 5.71294C3.21809 5.64887 3.23237 5.60931 3.24487 5.57466C3.26462 5.51995 3.27993 5.47751 3.32599 5.37016C3.36652 5.28953 3.39668 5.25449 3.42795 5.21817C3.45859 5.18259 3.49029 5.14577 3.53385 5.06362C3.57945 4.99138 3.60299 4.95408 3.6265 4.91675C3.65159 4.87691 3.67663 4.83705 3.72841 4.75463C3.78302 4.68386 3.81457 4.65192 3.84741 4.61868C3.87956 4.58613 3.91294 4.55235 3.97037 4.47967C4.02868 4.41749 4.03951 4.36858 4.05062 4.31843C4.06234 4.26548 4.07438 4.21115 4.14287 4.13836C4.20963 4.07918 4.24946 4.0554 4.28972 4.03136C4.3314 4.00647 4.37354 3.98131 4.44651 3.91628C4.52416 3.85963 4.55329 3.8238 4.58258 3.78778C4.61202 3.75157 4.64162 3.71517 4.72081 3.65724C4.79877 3.60974 4.84899 3.60344 4.89996 3.59704C4.95146 3.59059 5.00372 3.58403 5.08612 3.53482C5.16693 3.49505 5.21009 3.48116 5.25486 3.46675C5.29913 3.45251 5.34498 3.43775 5.43037 3.39697C5.50974 3.36592 5.54549 3.33544 5.5815 3.30473C5.62045 3.27151 5.65971 3.23803 5.75482 3.2033C5.84401 3.17645 5.89051 3.1739 5.93974 3.17121C5.98656 3.16865 6.03584 3.16596 6.12665 3.14209C6.19403 3.12729 6.23633 3.1106 6.27338 3.09598C6.33257 3.07263 6.37838 3.05455 6.49171 3.05786C6.56207 3.05655 6.61256 3.06913 6.65404 3.07946C6.72859 3.09803 6.774 3.10934 6.85327 3.01967Z" fill="#2B292D"/>
</g>
</svg>
