<svg width="209" height="237" viewBox="0 0 209 237" fill="none" xmlns="http://www.w3.org/2000/svg">
<mask id="mask0" mask-type="alpha" maskUnits="userSpaceOnUse" x="0" y="0" width="209" height="237">
<rect width="209" height="237" fill="white"/>
</mask>
<g mask="url(#mask0)">
<path d="M43.3119 67.9885C41.5437 57.2123 47.4304 46.6409 57.4902 42.5269C59.9093 41.5484 61.2486 38.9332 60.6358 36.3842C59.4329 31.6358 60.1684 26.6008 62.6784 22.401C65.2353 18.1084 69.4463 15.0731 74.3097 14.0174C74.7052 13.9299 75.0963 14.1814 75.1834 14.5791C75.2707 14.9769 72.2412 18.7751 78 22.3444C78 22.3444 77.9022 29.7766 77.4468 34.3743C71.0199 35.5557 67.9508 35.4733 64.2647 39.4234C62.9556 40.8263 55.0588 51.4629 52.6627 55.8325C50.3013 60.1389 43.3718 68.3492 43.3119 67.9885Z" fill="#2D44CF"/>
<path d="M9 123C9.13872 120.264 10.0381 117.623 11.5962 115.374L62.7378 41.3392C66.0971 36.4741 72.0309 34.1005 77.8024 35.313L90.4544 37.0932C94.5617 37.0932 99.6841 38.477 103.553 41.5648L135.449 66.1097C137.84 67.9487 139.579 70.5103 140.41 73.4167L151.458 112.07C152.183 114.62 152.181 117.323 151.452 119.872" fill="white"/>
<path d="M8.73156 123C8.71913 123 8.70719 123 8.69379 123C8.29057 122.979 7.98039 122.635 8.00097 122.231C8.1478 119.374 9.08903 116.615 10.7184 114.265L61.694 40.6236C65.2006 35.5445 71.4023 33.063 77.4366 34.3246L89.9741 36.0854C94.7965 36.0974 99.8244 37.8176 103.434 40.6919L135.216 65.0992C137.719 67.0288 139.541 69.7078 140.419 72.7465L151.431 111.195C152.192 113.863 152.189 116.692 151.425 119.36C151.313 119.749 150.908 119.973 150.52 119.861C150.132 119.749 149.908 119.343 150.02 118.955C150.708 116.551 150.711 114.002 150.026 111.598L139.014 73.1501C138.223 70.4127 136.582 67.9994 134.328 66.2611L102.533 41.846C98.5523 38.6763 93.4099 37.5491 89.9215 37.5491C89.8875 37.549 89.8535 37.5466 89.8198 37.542L77.2087 35.7712C77.1926 35.769 77.1766 35.7661 77.16 35.7626C71.694 34.6108 66.0715 36.8554 62.8942 41.4578L11.92 115.099C10.4459 117.225 9.59419 119.721 9.46117 122.306C9.44096 122.695 9.12036 123 8.73156 123Z" fill="#222433"/>
<path d="M208.895 235.33C209.345 228.44 205.078 221.689 198.334 220.72C183.512 218.589 175.568 205.29 175.723 196L140 211.282L140.21 236L150.377 235.899L150.103 215.633L171.676 235.694L209 235.438" fill="white"/>
<path fill-rule="evenodd" clip-rule="evenodd" d="M139.209 235.275C139.212 235.677 139.538 236 139.938 236H139.945L150.044 235.9C150.238 235.898 150.423 235.819 150.558 235.68C150.694 235.541 150.768 235.354 150.766 235.159L150.517 216.828L170.701 235.504C170.837 235.629 171.015 235.698 171.2 235.698L208.276 235.444C208.533 235.442 208.77 235.305 208.9 235.083C209.03 234.861 209.034 234.587 208.91 234.361C209.263 226.914 204.421 220.392 197.778 219.442C183.306 217.371 175.798 204.348 175.944 195.743C175.948 195.496 175.827 195.263 175.623 195.125C175.418 194.987 175.157 194.961 174.93 195.058L139.444 210.164C139.173 210.279 138.998 210.547 139 210.843L139.209 235.275ZM140.198 235L140 211.605L174.037 197C174.262 201.758 176.381 207.039 179.832 211.346C184.118 216.764 190.302 220.31 197.103 221.25C202.915 222.087 207.171 227.827 206.995 234.451L171.012 234.701L149.795 214.913C149.581 214.713 149.27 214.661 149.004 214.781C148.738 214.901 148.568 215.17 148.572 215.464L148.834 234.914L140.198 235Z" fill="#222433"/>
<path fill-rule="evenodd" clip-rule="evenodd" d="M178.191 208.765C178.328 208.915 178.52 209 178.721 209C178.81 209 178.898 208.983 178.981 208.951C180.146 208.495 190.422 204.411 192.59 201.474C194.107 199.419 194.424 196.701 193.423 194.344C192.422 191.988 190.254 190.351 187.736 190.05C185.218 189.749 182.733 190.83 181.216 192.885C179.043 195.824 178.102 206.953 178.002 208.213C177.986 208.415 178.055 208.616 178.191 208.765ZM186.54 191.062C186.813 191.021 187.088 191 187.363 191C189.498 191.005 191.448 192.253 192.403 194.224C193.358 196.195 193.155 198.554 191.879 200.32C190.42 202.337 183.588 205.494 180 207C180.376 203.021 181.361 195.363 182.825 193.345C183.718 192.102 185.056 191.28 186.54 191.062ZM187.363 191C187.363 191 187.364 191 187.364 191H187.363C187.363 191 187.363 191 187.363 191Z" fill="#222433"/>
<path fill-rule="evenodd" clip-rule="evenodd" d="M178.509 208.256C179.548 208.571 187.702 210.998 192.091 210.998C192.65 211.011 193.209 210.953 193.754 210.825C193.777 210.819 193.801 210.811 193.823 210.803C197.583 209.758 199.783 205.892 198.742 202.158C197.7 198.424 193.81 196.229 190.044 197.251C186.562 198.188 179.038 206.18 178.191 207.088C178.023 207.268 177.96 207.522 178.025 207.759C178.09 207.996 178.273 208.184 178.509 208.256ZM192.891 208.888C190.539 209.46 183.582 207.708 180 206.671C182.6 203.93 187.803 198.816 190.08 198.193C193.006 197.396 196.018 199.14 196.809 202.089C197.599 205.038 195.869 208.074 192.943 208.871C192.925 208.876 192.908 208.881 192.891 208.888Z" fill="#222433"/>
<path d="M5.04181 235.973C4.53242 229.106 8.71723 222.333 15.4246 221.303C28.7866 219.253 32.1159 207.99 32.2419 199L68 199.123L67.9488 236H57.8219L57.9121 215.782L43.2128 235.993L5.04181 235.973Z" fill="white"/>
<path fill-rule="evenodd" clip-rule="evenodd" d="M57.9993 236H68.2106C68.4064 236 68.5942 235.923 68.7326 235.786C68.871 235.65 68.9486 235.464 68.9484 235.271L69 198.85C69 198.448 68.6714 198.123 68.2652 198.121L32.2092 198H32.2067C31.8035 198 31.4751 198.32 31.4694 198.718C31.3689 205.779 29.1138 217.936 15.139 220.037C8.34743 221.058 3.47453 227.762 4.04542 235.299C4.07422 235.679 4.39457 235.973 4.78024 235.973L43.2686 235.993C43.5034 235.993 43.7242 235.882 43.863 235.695L57.3427 217.541L57.2621 235.268C57.2611 235.462 57.3384 235.648 57.4768 235.785C57.6152 235.923 57.8032 236 57.9993 236ZM66.9509 234H58.2234L58.3104 214.809C58.3119 214.494 58.1077 214.214 57.8046 214.115C57.5015 214.017 57.1685 214.122 56.9797 214.376L42.3909 233.992L5.00612 233.974C4.81655 227.486 9.04878 221.84 14.8776 220.965C21.1718 220.02 25.8795 217.071 28.8697 212.199C31.5529 207.829 32.3033 202.733 32.4303 199L67 199.116L66.9509 234Z" fill="#222433"/>
<path fill-rule="evenodd" clip-rule="evenodd" d="M8.0058 213.272C8.16081 217.03 11.3848 220 15.3089 220C15.3943 220 15.4798 219.998 15.5654 219.995C19.2935 219.81 28.6315 213.59 29.6842 212.882C29.8933 212.741 30.0122 212.507 29.999 212.262C29.9858 212.018 29.8423 211.797 29.6191 211.678C28.4957 211.079 18.5386 205.824 14.8081 206.005C14.7826 206.006 14.7572 206.008 14.7319 206.012C10.82 206.309 7.85079 209.514 8.0058 213.272ZM14.3151 207.005C14.3282 207.004 14.341 207.003 14.3539 207.001H14.3541C16.8632 206.927 23.574 210.109 27 211.879C23.7594 213.996 17.3554 217.874 14.9067 217.997C11.7942 218.102 9.16924 215.781 9.00781 212.781C8.84637 209.782 11.2081 207.211 14.3151 207.005Z" fill="#222433"/>
<path fill-rule="evenodd" clip-rule="evenodd" d="M12.9772 213.099C14.3122 213.79 16.96 214 19.695 214C23.5771 214 27.6339 213.576 28.3582 213.497C28.6033 213.47 28.818 213.312 28.9267 213.079C29.0353 212.847 29.0226 212.571 28.8929 212.351C28.2405 211.24 22.4248 201.45 19.1951 199.78C16.9325 198.592 14.239 198.771 12.1361 200.248C10.0332 201.726 8.84294 204.276 9.01672 206.931C9.19051 209.586 10.7017 211.939 12.9772 213.099ZM10.1506 205.589C10.7582 202.9 13.0847 200.998 15.7636 201C16.6423 201.001 17.509 201.21 18.2967 201.612C20.5257 202.74 24.8672 209.204 27 212.628C23.0664 212.981 15.4479 213.389 13.2192 212.261C10.815 211.043 9.54305 208.278 10.1506 205.589ZM15.7629 201H15.7636H15.7629Z" fill="#222433"/>
<path d="M68 66C68.4888 63.7698 68.6301 61.4764 68.419 59.2022L103.04 55C103.334 57.2634 103.997 59.4624 105 61.5085L68 66Z" fill="#6BC7A9"/>
<path d="M66.7347 76C66.3459 76.0008 66.0241 75.718 66.0013 75.3556C65.9784 74.9932 66.2625 74.6771 66.6487 74.6353L108.18 70.0049C108.582 69.9601 108.947 70.2281 108.995 70.6036C109.043 70.9791 108.756 71.3198 108.354 71.3646L66.8224 75.995C66.7933 75.9982 66.764 75.9999 66.7347 76Z" fill="#222433"/>
<path d="M82.9767 51C77.7371 50.9849 73.2337 47.0841 72.2104 41.6742C72.1387 41.3004 72.0862 40.9201 72.0513 40.5413C72.0165 40.1625 72 39.7887 72 39.425C71.9995 37.6941 72.3666 35.985 73.0745 34.4227C73.2474 34.0509 73.6726 33.8953 74.0273 34.0742C74.3819 34.253 74.5333 34.6994 74.3664 35.0743C73.7508 36.4323 73.4313 37.9181 73.4314 39.4229C73.4314 39.7407 73.4465 40.0675 73.4761 40.3962C73.5057 40.725 73.553 41.0543 73.6143 41.3793C74.2581 44.9323 76.6621 47.849 79.9124 49.0209C83.1628 50.1929 86.7605 49.44 89.3381 47.0486C91.9157 44.6571 93.0774 40.9943 92.3816 37.4522C92.3045 37.0437 92.5565 36.6467 92.9445 36.5655C93.3325 36.4843 93.7096 36.7496 93.7868 37.1581C94.9713 43.4308 91.1015 49.5267 85.1433 50.774C84.4299 50.9238 83.7042 50.9995 82.9767 51Z" fill="#222433"/>
<circle cx="83" cy="52" r="2" fill="#222433"/>
<path d="M108.27 72C107.901 71.9996 107.59 71.7144 107.547 71.3362C107.221 68.4526 106.305 65.6737 104.857 63.1842C103.229 60.3232 102.252 57.1173 102.002 53.8094C101.982 53.5415 102.102 53.2831 102.317 53.1314C102.532 52.9797 102.809 52.9578 103.044 53.0739C103.278 53.19 103.435 53.4265 103.455 53.6943C103.688 56.7721 104.596 59.7549 106.111 62.4169C107.663 65.0871 108.646 68.0676 108.995 71.1603C109.018 71.3583 108.963 71.5574 108.843 71.7139C108.724 71.8704 108.548 71.9714 108.357 71.9947C108.328 71.9984 108.299 72.0001 108.27 72Z" fill="#222433"/>
<path d="M66.8147 77C66.4728 76.9995 66.1851 76.7204 66.1444 76.3497C65.8169 73.4043 66.0479 70.4168 66.823 67.5731C67.7796 64.1107 67.9067 60.4383 67.1921 56.907C67.1364 56.6482 67.2125 56.3766 67.3913 56.1961C67.5701 56.0156 67.824 55.9541 68.0559 56.035C68.2879 56.116 68.462 56.3269 68.5118 56.5872C69.2765 60.3642 69.141 64.2923 68.1182 67.9958C67.3967 70.6455 67.1819 73.4289 67.4873 76.173C67.5087 76.3674 67.4585 76.5632 67.3478 76.7171C67.237 76.8711 67.0748 76.9708 66.8967 76.9941C66.8695 76.9978 66.8421 76.9998 66.8147 77Z" fill="#222433"/>
<path d="M134.268 118C134 118 133.754 117.854 133.625 117.619L108.091 71.0923C107.896 70.7362 108.025 70.2883 108.379 70.0918C108.734 69.8953 109.18 70.0247 109.376 70.3807L134.909 116.909C135.034 117.136 135.03 117.414 134.898 117.638C134.767 117.862 134.527 118 134.268 118Z" fill="#222433"/>
<path d="M77.3172 22.0608L77.0043 36.4895C76.8763 39.9572 79.6378 42.8702 83.1724 42.9958C86.707 43.1214 89.6762 40.4121 89.8042 36.9443L89.9616 32.9957C93.8144 32.2608 97.0854 29.7806 98.7816 26.3081C100.478 22.8356 100.399 18.7805 98.5695 15.3739C98.8867 13.5797 98.7894 11.7385 98.2848 9.98607L94.0144 6L85.3372 14.2699" fill="white"/>
<path d="M82.9977 44C81.097 43.9974 79.2788 43.2112 77.9603 41.8216C76.6417 40.4319 75.9358 38.5581 76.0046 36.63L76.3107 22.0091C76.3193 21.6005 76.6527 21.2762 77.0553 21.285C77.4578 21.2937 77.7772 21.632 77.7687 22.0407L77.4627 36.6744C77.3611 39.384 79.1755 41.7826 81.7805 42.3826C84.3855 42.9826 87.0419 41.6137 88.1023 39.1249C88.3765 38.4833 88.5286 37.7947 88.5506 37.0957L88.7049 33.0868C88.718 32.7437 88.962 32.4549 89.2941 32.3893C92.8443 31.689 95.8585 29.3243 97.4213 26.0136C98.9841 22.7028 98.911 18.8365 97.2243 15.589C97.1497 15.4447 97.1241 15.2795 97.1514 15.1189C97.4299 13.4747 97.3582 11.789 96.9413 10.1752L93.4107 6.76548L85.4088 14.6559C85.2241 14.8503 84.9498 14.9272 84.693 14.8564C84.4363 14.7856 84.2379 14.5784 84.1755 14.3159C84.113 14.0534 84.1964 13.7772 84.3931 13.5953L92.8975 5.2091C93.1783 4.93232 93.6243 4.93003 93.9079 5.20392L98.0932 9.24582C98.1877 9.33731 98.2563 9.45279 98.292 9.58029C98.7911 11.3829 98.9055 13.2729 98.6276 15.1241C100.393 18.6899 100.458 22.8787 98.8052 26.4995C97.1521 30.1204 93.9611 32.7772 90.1397 33.7146L90.0075 37.1465C89.9793 38.0297 89.7869 38.8996 89.4404 39.7102C88.3272 42.316 85.7956 44.0016 82.9977 44Z" fill="#222433"/>
<path d="M83.5037 16C83.2061 15.9999 82.9393 15.8103 82.8327 15.523C82.6889 15.1399 83.4747 14.8978 83.2456 14.5623C81.0234 11.3067 77.1219 11.3067 74.4798 14.1214C74.2032 14.4163 74.2236 14.8918 73.8281 14.9285C73.4327 14.9652 73.0834 14.6636 73.0478 14.2547C73.0238 13.9945 73.0017 13.7257 73.0017 13.4447V13.3728C72.9234 8.46729 75.4918 3.92429 79.6643 1.58774C83.8368 -0.748802 88.9201 -0.490629 92.851 2.25747C95.3385 3.99633 97.1525 6.58724 97.9732 9.57354C98.0609 9.89734 97.9282 10.2418 97.6492 10.4145C97.3702 10.5873 97.0139 10.5457 96.7792 10.313L93.5962 7.14856L88.2434 12.6715C87.0358 14.132 85.4955 15.2588 83.7616 15.9502C83.6793 15.983 83.5919 15.9999 83.5037 16Z" fill="#2D44CF"/>
<path d="M84 15.6838C83.1249 13.0104 80.4935 11.4848 77.9202 12.159C75.347 12.8331 73.6735 15.4865 74.0537 18.2896C74.4339 21.0927 76.7434 23.1287 79.3898 22.9937" fill="white"/>
<path d="M79.1457 23C76.0163 22.9973 73.3878 20.7031 73.0388 17.6697C72.6897 14.6362 74.7313 11.8307 77.7822 11.1514C80.8331 10.472 83.9207 12.1354 84.9557 15.0161C85.0471 15.2644 84.9949 15.5414 84.819 15.7418C84.6431 15.9422 84.3704 16.0351 84.1049 15.9852C83.8393 15.9353 83.6216 15.7502 83.5346 15.5004C82.7437 13.2968 80.3663 12.0394 78.0416 12.5953C75.7168 13.1511 74.205 15.3383 74.5486 17.6489C74.8921 19.9595 76.9786 21.6377 79.3695 21.5264C79.6398 21.5112 79.8977 21.6388 80.0448 21.8606C80.1919 22.0824 80.2055 22.3641 80.0805 22.5984C79.9555 22.8327 79.7111 22.9834 79.4405 22.9931C79.3423 22.9979 79.244 23.0002 79.1457 23Z" fill="#222433"/>
<path d="M95.0829 24C94.7958 24.0004 94.5418 23.7871 94.4554 23.4733C94.3691 23.1595 94.4704 22.8177 94.7057 22.6292L96.4429 21.2358L94.1084 17.1679C93.9087 16.8203 93.9927 16.353 94.296 16.1242C94.5992 15.8954 95.0068 15.9917 95.2064 16.3393L97.8919 21.0201C98.0872 21.3607 98.0108 21.8175 97.7195 22.0512L95.459 23.8642C95.3488 23.9527 95.2175 24.0001 95.0829 24Z" fill="#222433"/>
<path d="M77.6954 19C77.3333 18.9995 77.032 18.7287 77.0024 18.3771C76.9727 18.0255 77.2245 17.7104 77.5817 17.6523L79.813 17.2904L77.5271 15.17C77.3469 15.0028 77.2719 14.7547 77.3304 14.5191C77.3888 14.2835 77.5719 14.0961 77.8105 14.0277C78.0492 13.9592 78.3073 14.0199 78.4875 14.1871L81.7838 17.2448C81.975 17.4221 82.0468 17.6895 81.9693 17.9353C81.8918 18.1812 81.6783 18.3632 81.4179 18.4054L77.8106 18.9912C77.7725 18.9972 77.734 19.0002 77.6954 19Z" fill="#222433"/>
<path d="M93.9933 28C93.9609 28 93.9286 27.9994 93.8962 27.9983C92.8497 27.9665 91.8716 27.4086 91.2329 26.4792L91.157 26.3676C90.9919 26.1269 90.954 25.8057 91.0575 25.5251C91.1611 25.2446 91.3903 25.0472 91.6589 25.0074C91.9275 24.9675 92.1947 25.0913 92.3598 25.332L92.4356 25.4425C92.7747 25.936 93.2844 26.2454 93.8385 26.294C94.3927 26.3426 94.9392 26.1258 95.3426 25.6974L95.7081 25.308C95.9032 25.0916 96.1875 25.0102 96.4513 25.0953C96.7151 25.1803 96.9173 25.4184 96.98 25.7179C97.0426 26.0174 96.956 26.3314 96.7534 26.539L96.3869 26.9299C95.7419 27.6189 94.8844 28.0023 93.9933 28Z" fill="#222433"/>
<path d="M87.873 33C84.7212 32.9997 81.6725 32.0014 79.2723 30.1838C79.0636 30.0301 78.9641 29.7884 79.0117 29.5511C79.0594 29.3139 79.2468 29.1178 79.5024 29.0378C79.758 28.9579 80.0421 29.0066 80.2461 29.1651C82.8392 31.1287 86.2611 31.9969 89.6282 31.5453C89.7903 31.5246 89.9454 31.5007 90.0892 31.4738C90.3533 31.4228 90.6279 31.502 90.8083 31.6812C90.9886 31.8603 91.0469 32.1119 90.961 32.3399C90.875 32.568 90.6581 32.7374 90.3928 32.7836C90.2209 32.8152 90.0355 32.8444 89.8474 32.8685C89.1939 32.956 88.5339 33 87.873 33Z" fill="#222433"/>
<path d="M98.7714 20.1522C98.7714 20.1522 97.883 20.2076 97.8687 20.2076C97.6256 20.2073 97.3989 20.0842 97.2653 19.88L94.5882 15.7518L94.6408 16.6261C94.7774 18.8658 93.0862 20.7942 90.8598 20.9374H90.8551C90.8551 20.9374 89.8398 21 89.7679 21C87.8739 20.9966 86.3067 19.5171 86.1833 17.616L86.0013 14.6511C85.9776 14.253 86.2784 13.9105 86.6742 13.8852L101.061 13.0013C101.456 12.9779 101.796 13.2803 101.822 13.6781L101.994 16.4936C102.101 18.3963 100.662 20.0293 98.7714 20.1522Z" fill="#222433"/>
<path d="M12 119C6.22361 122.427 4.26076 132.414 1.8824 133.896C-0.495967 135.379 2.13731 139.954 7.33759 137.06C8.60682 136.354 9.94563 135.167 11.2444 133.78" fill="white"/>
<path d="M3.77138 138C2.22908 138 1.06004 137.288 0.457108 136.316C-0.362319 134.995 -0.0563442 133.463 1.18486 132.673C1.88653 132.226 2.7301 130.366 3.62291 128.397C5.26347 124.779 7.30435 120.277 10.8754 118.113C11.0981 117.973 11.38 117.962 11.613 118.085C11.8461 118.207 11.9939 118.444 11.9998 118.704C12.0057 118.964 11.8688 119.208 11.6416 119.34C8.45608 121.271 6.51686 125.548 4.95871 128.984C3.88938 131.342 3.04509 133.204 1.97893 133.884C1.32676 134.299 1.37162 135.027 1.70514 135.565C2.36 136.62 4.0759 137.085 6.43495 135.745C7.47867 135.152 8.67599 134.121 9.99449 132.682C10.2686 132.402 10.7185 132.387 11.0112 132.648C11.3038 132.909 11.3338 133.351 11.0789 133.648C9.65828 135.199 8.34125 136.325 7.16465 136.994C6.14294 137.617 4.97256 137.964 3.77138 138Z" fill="#222433"/>
<path d="M30 126.726C27.421 124.141 25.0884 125.617 24.4491 128.137C23.2291 124.468 19.0616 123.703 17.9539 127.537C17.8441 127.283 16.7339 125.41 15.3749 125.232C13.8743 125.01 11.2123 125.136 11.6515 130.532L11 139" fill="white"/>
<path d="M10.7162 139C10.6972 139 10.6779 139 10.6585 138.998C10.4694 138.982 10.2939 138.89 10.1708 138.742C10.0478 138.594 9.98714 138.401 10.0023 138.207L10.6345 130.082C10.4482 127.71 10.856 126.02 11.847 125.061C12.6232 124.309 13.7152 124.03 15.0923 124.232C16.0488 124.355 16.8381 125.061 17.377 125.714C17.9722 124.676 19.0486 124.027 20.2221 124.001C21.609 123.973 22.9356 124.759 23.815 126.059C24.2737 125.298 24.9872 124.736 25.8214 124.477C27.0967 124.112 28.5032 124.607 29.7816 125.874C30.0658 126.156 30.0737 126.621 29.7991 126.913C29.5246 127.204 29.0717 127.212 28.7875 126.931C27.8765 126.028 26.9842 125.668 26.2066 125.891C25.4452 126.11 24.8263 126.88 24.5512 127.953C24.4708 128.265 24.2009 128.487 23.8862 128.499C23.5716 128.511 23.2862 128.311 23.1833 128.005C22.5872 126.233 21.2441 125.436 20.2502 125.469C19.2964 125.489 18.5481 126.192 18.1959 127.397C18.11 127.69 17.8556 127.898 17.5576 127.918C17.2597 127.938 16.9809 127.766 16.8583 127.487C16.7007 127.155 15.769 125.798 14.901 125.687C13.9517 125.548 13.2776 125.693 12.8281 126.128C12.1711 126.764 11.9069 128.11 12.065 130.019C12.0681 130.059 12.0681 130.099 12.065 130.139L11.4281 138.324C11.3984 138.705 11.0887 138.999 10.7162 139Z" fill="#222433"/>
<path d="M18.2632 139C17.8707 139 17.5475 138.702 17.5286 138.323L17.001 127.748C16.9874 127.494 17.1156 127.252 17.3371 127.114C17.5586 126.975 17.8396 126.962 18.0738 127.079C18.3081 127.196 18.4598 127.425 18.4716 127.68L18.9991 138.254C19.0086 138.442 18.9402 138.627 18.8089 138.767C18.6777 138.907 18.4944 138.99 18.2993 138.999L18.2632 139Z" fill="#222433"/>
<path d="M24.2958 140C23.9235 140 23.6159 139.698 23.5942 139.311L23.0012 128.775C22.9785 128.371 23.2745 128.025 23.6623 128.001C24.0502 127.978 24.383 128.286 24.4058 128.689L24.9988 139.226C25.0215 139.63 24.7255 139.976 24.3378 140C24.3237 140 24.3096 140 24.2958 140Z" fill="#222433"/>
<path d="M160.903 165.54L159.371 162.761L145.359 137.343L108.632 71L67.0962 76.2047L34.8793 116.894C31.1007 120.957 29.0003 126.298 29 131.846V198.804H72.9321V140.488L87.2437 123.053L104.739 154.578L106.277 157.347L136.614 212L177 194.742L160.903 165.54Z" fill="white"/>
<circle cx="74.5" cy="130.5" r="1.5" fill="#6BC7A9"/>
<circle cx="55.5" cy="147.5" r="1.5" fill="#6BC7A9"/>
<circle cx="60.5" cy="103.5" r="1.5" fill="#6BC7A9"/>
<circle cx="60.5" cy="94.5" r="1.5" fill="#6BC7A9"/>
<circle cx="53.5" cy="99.5" r="1.5" fill="#6BC7A9"/>
<circle cx="37.5" cy="131.5" r="1.5" fill="#6BC7A9"/>
<circle cx="55.5" cy="166.5" r="1.5" fill="#6BC7A9"/>
<path d="M108 155.508C108 156.257 107.38 156.893 106.544 157L105 154.531C105.462 154.05 106.214 153.875 106.883 154.093C107.553 154.31 107.998 154.875 108 155.508Z" fill="#6BC7A9"/>
<circle cx="40.5" cy="161.5" r="1.5" fill="#6BC7A9"/>
<circle cx="48.5" cy="192.5" r="1.5" fill="#6BC7A9"/>
<circle cx="65.5" cy="184.5" r="1.5" fill="#6BC7A9"/>
<circle cx="63.5" cy="137.5" r="1.5" fill="#6BC7A9"/>
<circle cx="48.5" cy="155.5" r="1.5" fill="#6BC7A9"/>
<circle cx="35.5" cy="144.5" r="1.5" fill="#6BC7A9"/>
<circle cx="63.5" cy="154.5" r="1.5" fill="#6BC7A9"/>
<circle cx="116.5" cy="158.5" r="1.5" fill="#6BC7A9"/>
<circle cx="130.5" cy="166.5" r="1.5" fill="#6BC7A9"/>
<circle cx="126.5" cy="179.5" r="1.5" fill="#6BC7A9"/>
<circle cx="117.5" cy="168.5" r="1.5" fill="#6BC7A9"/>
<circle cx="105.5" cy="137.5" r="1.5" fill="#6BC7A9"/>
<circle cx="114.5" cy="121.5" r="1.5" fill="#6BC7A9"/>
<circle cx="112.5" cy="107.5" r="1.5" fill="#6BC7A9"/>
<circle cx="116.5" cy="99.5" r="1.5" fill="#6BC7A9"/>
<circle cx="87.5" cy="94.5" r="1.5" fill="#6BC7A9"/>
<circle cx="102.5" cy="82.5" r="1.5" fill="#6BC7A9"/>
<circle cx="94.5" cy="82.5" r="1.5" fill="#6BC7A9"/>
<circle cx="79.5" cy="85.5" r="1.5" fill="#6BC7A9"/>
<circle cx="117.5" cy="141.5" r="1.5" fill="#6BC7A9"/>
<circle cx="124.5" cy="125.5" r="1.5" fill="#6BC7A9"/>
<circle cx="144.5" cy="145.5" r="1.5" fill="#6BC7A9"/>
<circle cx="147.5" cy="162.5" r="1.5" fill="#6BC7A9"/>
<circle cx="147.5" cy="187.5" r="1.5" fill="#6BC7A9"/>
<circle cx="159.5" cy="190.5" r="1.5" fill="#6BC7A9"/>
<circle cx="162.5" cy="178.5" r="1.5" fill="#6BC7A9"/>
<circle cx="105.5" cy="119.5" r="1.5" fill="#6BC7A9"/>
<circle cx="85.5" cy="103.5" r="1.5" fill="#6BC7A9"/>
<circle cx="97.5" cy="129.5" r="1.5" fill="#6BC7A9"/>
<circle cx="97.5" cy="107.5" r="1.5" fill="#6BC7A9"/>
<circle cx="98.5" cy="99.5" r="1.5" fill="#6BC7A9"/>
<circle cx="85.5" cy="77.5" r="1.5" fill="#6BC7A9"/>
<circle cx="79.5" cy="99.5" r="1.5" fill="#6BC7A9"/>
<circle cx="124.5" cy="150.5" r="1.5" fill="#6BC7A9"/>
<path d="M161 165.475C160.506 165.982 159.694 166.142 159.004 165.866C158.314 165.591 157.912 164.946 158.016 164.283C158.121 163.621 158.707 163.098 159.456 163L161 165.475Z" fill="#6BC7A9"/>
<circle cx="132.5" cy="137.5" r="1.5" fill="#6BC7A9"/>
<circle cx="124.5" cy="111.5" r="1.5" fill="#6BC7A9"/>
<circle cx="107.5" cy="94.5" r="1.5" fill="#6BC7A9"/>
<circle cx="112.5" cy="85.5" r="1.5" fill="#6BC7A9"/>
<circle cx="90.5" cy="114.5" r="1.5" fill="#6BC7A9"/>
<circle cx="136.5" cy="154.5" r="1.5" fill="#6BC7A9"/>
<circle cx="135.5" cy="176.5" r="1.5" fill="#6BC7A9"/>
<circle cx="131.5" cy="190.5" r="1.5" fill="#6BC7A9"/>
<circle cx="145.5" cy="174.5" r="1.5" fill="#6BC7A9"/>
<circle cx="146.5" cy="200.5" r="1.5" fill="#6BC7A9"/>
<circle cx="66.5" cy="170.5" r="1.5" fill="#6BC7A9"/>
<circle cx="46.5" cy="178.5" r="1.5" fill="#6BC7A9"/>
<path d="M31 158.5C31 158.898 30.7893 159.279 30.4142 159.561C30.0391 159.842 29.5304 160 29 160V157C30.1046 157 31 157.672 31 158.5Z" fill="#6BC7A9"/>
<circle cx="37.5" cy="189.5" r="1.5" fill="#6BC7A9"/>
<circle cx="74.5" cy="120.5" r="1.5" fill="#6BC7A9"/>
<circle cx="79.5" cy="110.5" r="1.5" fill="#6BC7A9"/>
<circle cx="69.5" cy="108.5" r="1.5" fill="#6BC7A9"/>
<circle cx="69.5" cy="95.5" r="1.5" fill="#6BC7A9"/>
<circle cx="68.5" cy="84.5" r="1.5" fill="#6BC7A9"/>
<circle cx="63.5" cy="125.5" r="1.5" fill="#6BC7A9"/>
<circle cx="60.5" cy="113.5" r="1.5" fill="#6BC7A9"/>
<circle cx="54.5" cy="122.5" r="1.5" fill="#6BC7A9"/>
<circle cx="46.5" cy="105.5" r="1.5" fill="#6BC7A9"/>
<circle cx="69.5" cy="148.5" r="1.5" fill="#6BC7A9"/>
<circle cx="56.5" cy="182.5" r="1.5" fill="#6BC7A9"/>
<circle cx="35.5" cy="175.5" r="1.5" fill="#6BC7A9"/>
<circle cx="46.5" cy="135.5" r="1.5" fill="#6BC7A9"/>
<circle cx="44.5" cy="119.5" r="1.5" fill="#6BC7A9"/>
<path fill-rule="evenodd" clip-rule="evenodd" d="M135.372 212.622C135.5 212.855 135.745 213 136.01 213C136.109 213 136.206 212.98 136.297 212.94L176.557 195.617C176.747 195.536 176.893 195.377 176.96 195.181C177.027 194.985 177.009 194.769 176.909 194.587L160.863 165.276L145.367 136.972L108.754 70.3787C108.609 70.1161 108.32 69.9684 108.024 70.0057L66.6173 75.2303C66.4275 75.2542 66.2546 75.3522 66.1358 75.5031L34.0368 116.323C30.1506 120.53 27.9934 126.065 28 131.81V199.02C28 199.426 28.3268 199.755 28.73 199.755H72.5256C72.9287 199.755 73.2555 199.426 73.2555 199.02V140.748L86.6755 124.286L103.595 154.983L135.372 212.622ZM86.4413 122.795C86.4336 122.795 86.4258 122.795 86.4181 122.795C86.199 122.795 85.9916 122.894 85.853 123.065L71.5648 140.591C71.4577 140.722 71.3991 140.887 71.3989 141.057V198.938H29V132.37C28.9938 126.978 31.022 121.785 34.6744 117.841C34.6878 117.827 34.7002 117.812 34.7122 117.797L66.6914 77.1326L107.372 72L143.799 138.25L159.319 166.593L175 195.233L136.028 212L106.059 157.644L87.0575 123.174C86.94 122.961 86.7252 122.82 86.4841 122.798C86.4699 122.796 86.4556 122.795 86.4413 122.795Z" fill="#222433"/>
<path d="M72.5032 142C72.2293 142 72.0071 141.674 72.0065 141.271L72 136.732C71.9997 136.538 72.0518 136.352 72.1448 136.215C72.2378 136.078 72.364 136 72.4958 136H72.4968C72.7707 136 72.993 136.326 72.9935 136.729L73 141.268C73.0003 141.462 72.9482 141.648 72.8552 141.785C72.7622 141.922 72.636 142 72.5042 142H72.5032Z" fill="#222433"/>
<path d="M145.461 120.849C145.653 124.086 145.85 133.659 145.701 135.9C145.552 138.242 141.744 139.884 140.976 133.988C139.265 120.761 133.445 122.089 134.054 115.947L129 107.191C129.706 105.826 131.154 104.645 132.663 104.01C136.283 102.476 140.397 102.699 143.834 104.615C147.271 106.53 149.652 109.929 150.298 113.841L150.667 116.072C150.667 116.072 151.711 135.486 150.104 145L145.688 137.218" fill="white"/>
<path fill-rule="evenodd" clip-rule="evenodd" d="M149.697 145.629C149.829 145.858 150.073 146 150.338 146C150.381 146 150.425 145.996 150.468 145.989C150.775 145.934 151.014 145.693 151.067 145.386C152.706 135.782 151.696 116.739 151.652 115.933C151.651 115.906 151.648 115.879 151.643 115.852L151.266 113.593C150.568 109.41 147.994 105.776 144.279 103.727C140.564 101.678 136.116 101.44 132.204 103.079C130.396 103.832 128.856 105.163 128.084 106.64C127.966 106.865 127.973 107.134 128.101 107.354L133.155 116.016C132.935 118.899 134.094 120.359 135.429 122.042C137.16 124.222 139.312 126.935 140.264 134.208C140.854 138.694 143.111 138.97 143.788 138.946C144.411 138.917 145.006 138.678 145.474 138.267L149.697 145.629ZM146.932 136.919C146.914 136.887 146.893 136.856 146.87 136.827C146.965 136.557 147.023 136.276 147.04 135.991C147.198 133.632 146.988 123.751 146.793 120.484C146.779 120.216 146.624 119.976 146.386 119.856C146.148 119.735 145.864 119.752 145.642 119.901C145.42 120.049 145.294 120.306 145.312 120.574C145.505 123.81 145.714 133.573 145.559 135.892C145.51 136.661 144.875 137.355 144.199 137.378H144.169C143.423 137.378 142.519 136.463 142.182 133.886C141.175 126.121 138.773 123.072 137.02 120.847L137.02 120.846C135.699 119.17 134.826 118.061 135.073 115.584C135.088 115.427 135.054 115.269 134.975 115.133L130 106.543C130.794 105.393 131.904 104.501 133.193 103.976C136.703 102.494 140.693 102.709 144.025 104.56C147.358 106.412 149.666 109.696 150.293 113.477L150.664 115.718C150.713 116.664 151.544 133.172 150.394 143L146.932 136.919Z" fill="#222433"/>
</g>
</svg>
